<svg width="90" height="29" viewBox="0 0 90 29" fill="none" xmlns="http://www.w3.org/2000/svg">
<rect width="19.6" height="19.6" rx="4" fill="#60A5FA"/>
<rect x="6.2998" y="4.90039" width="16.1" height="16.1" rx="4" fill="white"/>
<rect x="9.7998" y="8.40039" width="12.6" height="12.6" rx="2" fill="#60A5FA"/>
<path d="M31.0994 22V20.6832L37.9837 10.6094H31.0419V8.90909H40.3999V10.2259L33.5156 20.2997H40.4574V22H31.0994ZM42.7809 22V12.1818H44.6921V22H42.7809ZM43.7461 10.6669C43.4137 10.6669 43.1282 10.5561 42.8896 10.3345C42.6552 10.1087 42.538 9.8402 42.538 9.52912C42.538 9.21378 42.6552 8.94531 42.8896 8.72372C43.1282 8.49787 43.4137 8.38494 43.7461 8.38494C44.0785 8.38494 44.3619 8.49787 44.5962 8.72372C44.8349 8.94531 44.9542 9.21378 44.9542 9.52912C44.9542 9.8402 44.8349 10.1087 44.5962 10.3345C44.3619 10.5561 44.0785 10.6669 43.7461 10.6669ZM49.1745 16.1705V22H47.2633V12.1818H49.0978V13.7798H49.2193C49.4451 13.2599 49.7988 12.8423 50.2804 12.527C50.7662 12.2116 51.3777 12.054 52.1149 12.054C52.7839 12.054 53.3699 12.1946 53.8727 12.4759C54.3755 12.7528 54.7654 13.1662 55.0424 13.7159C55.3194 14.2656 55.4579 14.9453 55.4579 15.755V22H53.5467V15.9851C53.5467 15.2734 53.3613 14.7173 52.9906 14.3168C52.6199 13.9119 52.1106 13.7095 51.4629 13.7095C51.0197 13.7095 50.6255 13.8054 50.2804 13.9972C49.9395 14.1889 49.6689 14.4702 49.4686 14.8409C49.2725 15.2074 49.1745 15.6506 49.1745 16.1705ZM64.6497 25.6818V20.4723H64.5346C64.4196 20.6811 64.2534 20.9197 64.036 21.1882C63.823 21.4567 63.5289 21.6911 63.1539 21.8913C62.7789 22.0916 62.2931 22.1918 61.6966 22.1918C60.9039 22.1918 60.1966 21.9893 59.5744 21.5845C58.9565 21.1754 58.4707 20.5937 58.117 19.8395C57.7676 19.081 57.5929 18.1712 57.5929 17.1101C57.5929 16.049 57.7697 15.1413 58.1234 14.3871C58.4814 13.6328 58.9714 13.0554 59.5936 12.6548C60.2157 12.2543 60.921 12.054 61.7093 12.054C62.3187 12.054 62.8088 12.1562 63.1795 12.3608C63.5545 12.5611 63.8443 12.7955 64.0488 13.0639C64.2576 13.3324 64.4196 13.5689 64.5346 13.7734H64.6944V12.1818H66.5609V25.6818H64.6497ZM62.1184 20.5618C62.6681 20.5618 63.1326 20.4169 63.5119 20.1271C63.8954 19.8331 64.1852 19.4261 64.3812 18.9062C64.5815 18.3864 64.6816 17.7812 64.6816 17.0909C64.6816 16.4091 64.5836 15.8125 64.3876 15.3011C64.1916 14.7898 63.9039 14.3913 63.5247 14.1058C63.1454 13.8203 62.6767 13.6776 62.1184 13.6776C61.5431 13.6776 61.0637 13.8267 60.6802 14.125C60.2967 14.4233 60.0069 14.8303 59.8109 15.3459C59.6191 15.8615 59.5233 16.4432 59.5233 17.0909C59.5233 17.7472 59.6213 18.3374 59.8173 18.8615C60.0133 19.3857 60.3031 19.8011 60.6866 20.108C61.0744 20.4105 61.5517 20.5618 62.1184 20.5618ZM71.0417 8.90909V22H69.1305V8.90909H71.0417ZM77.8445 22.1982C76.8771 22.1982 76.044 21.9915 75.3452 21.5781C74.6506 21.1605 74.1136 20.5746 73.7344 19.8203C73.3594 19.0618 73.1719 18.1733 73.1719 17.1548C73.1719 16.1491 73.3594 15.2628 73.7344 14.4957C74.1136 13.7287 74.642 13.13 75.3196 12.6996C76.0014 12.2692 76.7983 12.054 77.7102 12.054C78.2642 12.054 78.8011 12.1456 79.321 12.3288C79.8409 12.5121 80.3075 12.7997 80.7209 13.1918C81.1342 13.5838 81.4602 14.093 81.6989 14.7195C81.9375 15.3416 82.0568 16.098 82.0568 16.9886V17.6662H74.2521V16.2344H80.1839C80.1839 15.7315 80.0817 15.2862 79.8771 14.8984C79.6726 14.5064 79.3849 14.1974 79.0142 13.9716C78.6477 13.7457 78.2173 13.6328 77.723 13.6328C77.1861 13.6328 76.7173 13.7649 76.3168 14.0291C75.9205 14.2891 75.6136 14.63 75.3963 15.0518C75.1832 15.4695 75.0767 15.9233 75.0767 16.4134V17.532C75.0767 18.1882 75.1918 18.7464 75.4219 19.2067C75.6562 19.6669 75.9822 20.0185 76.3999 20.2614C76.8175 20.5 77.3054 20.6193 77.8636 20.6193C78.2259 20.6193 78.5561 20.5682 78.8544 20.4659C79.1527 20.3594 79.4105 20.2017 79.6278 19.9929C79.8452 19.7841 80.0114 19.5263 80.1264 19.2195L81.9354 19.5455C81.7905 20.0781 81.5305 20.5447 81.1555 20.9453C80.7848 21.3416 80.3182 21.6506 79.7557 21.8722C79.1974 22.0895 78.5604 22.1982 77.8445 22.1982ZM84.1774 22V12.1818H86.0247V13.7415H86.127C86.3059 13.2131 86.6213 12.7976 87.073 12.495C87.5289 12.1882 88.0446 12.0348 88.6199 12.0348C88.7392 12.0348 88.8798 12.0391 89.0417 12.0476C89.2079 12.0561 89.3379 12.0668 89.4316 12.0795V13.9077C89.3549 13.8864 89.2186 13.8629 89.0226 13.8374C88.8265 13.8075 88.6305 13.7926 88.4345 13.7926C87.9828 13.7926 87.5801 13.8885 87.2264 14.0803C86.877 14.2678 86.6 14.5298 86.3954 14.8665C86.1909 15.1989 86.0886 15.5781 86.0886 16.0043V22H84.1774Z" fill="#374151"/>
</svg>
